<?xml version="1.0" encoding="utf-8"?>
<!-- Uploaded to: SVG Repo, www.svgrepo.com, Generator: SVG Repo Mixer Tools -->
<svg fill="#000000" version="1.1" id="Layer_1" xmlns="http://www.w3.org/2000/svg" xmlns:xlink="http://www.w3.org/1999/xlink" 
	 width="800px" height="800px" viewBox="0 0 172 260" enable-background="new 0 0 172 260" xml:space="preserve">
<path d="M45.999,210h80v15.917h-80V210z M97.999,258h-24c-8.837,0-16-7.163-16-16v-4h56v4C113.999,250.837,106.836,258,97.999,258z
	 M83.973,2.024C38.1,3.104,1.263,41.516,2.011,87.395c0.353,21.69,8.928,41.381,22.743,56.093
	c13.44,14.314,21.245,33.004,21.245,52.64v1.789h34V128h-16v-12h44v12h-16v69.917h34v-1.793c0-19.601,7.746-38.292,21.18-52.566
	c14.15-15.034,22.82-35.283,22.82-57.558C169.999,38.935,131.291,0.91,83.973,2.024z"/>
</svg>